<svg width="816" height="792" viewBox="0 0 816 792" fill="none" xmlns="http://www.w3.org/2000/svg">
<style>
  .logo-shape { fill: #222222; }
  @media (prefers-color-scheme: dark) {
    .logo-shape { fill: #DDDDDD; }
  }
</style>
<g filter="url(#filter0_d_1_3)">
<path class="logo-shape" d="M582.089 207.847C592.971 211.591 609.016 218.835 620.001 223.411C634.225 229.338 651.302 235.808 665.028 242.227C665.132 247.855 664.578 255.16 664.275 260.844C663.749 271.215 663.143 281.581 662.454 291.943C665.136 294.383 667.972 297.14 670.479 299.75C684.065 313.907 699.075 327.439 712.339 341.846C721.196 341.013 731.348 340.813 740.321 340.284C746.501 339.921 756.282 339.183 762.107 339.495C763.291 341.582 765.347 346.852 766.323 349.225L773.387 366.363L796.465 422.079C784.38 433.369 771.331 444.289 759.478 455.663C759.737 459.308 759.753 463.878 759.625 467.519C758.96 486.626 760.697 507.203 759.386 526.13C771.793 537.122 784.125 548.201 796.381 559.364C795.528 561.926 794.456 564.635 793.401 567.129C782.826 592.132 772.889 617.481 762.163 642.412C757.167 642.524 751.565 641.899 746.481 641.675C735.049 641.237 723.622 640.656 712.207 639.938C695.911 656.754 678.77 673.076 662.438 689.897C663.175 698.577 663.49 707.394 663.916 716.095C664.299 723.919 665.132 731.783 664.885 739.616C661.39 741.165 657.713 742.671 654.159 744.102C630.141 753.759 606.338 764.364 582.233 773.77C580.28 772.292 572.244 763.192 570.204 760.862C563.283 752.962 555.581 745.006 548.884 737.006C525.682 737.217 501.183 737.301 478.013 736.982C466.881 749.018 455.884 761.647 444.764 773.81C442.202 773.037 439.226 771.69 436.739 770.626C412.004 760.021 386.751 750.328 362.096 739.572C361.778 733.393 362.327 726.007 362.655 719.756C363.211 709.82 363.71 699.884 364.151 689.944C361.238 686.431 355.835 681.331 352.455 677.961L328.185 653.763C324.199 649.779 318.293 644.201 314.76 640.002C298.548 640.699 280.477 642.201 264.499 642.516C257.131 623.242 248.222 603.8 240.602 584.582C237.587 576.977 232.826 566.913 230.451 559.396C240.724 549.074 256.113 535.831 267.165 526.254C267.424 517.326 267.197 507.091 267.198 498.099C267.268 483.897 267.218 469.694 267.047 455.496C256.242 444.536 241.683 433.018 230.208 421.979C234.219 413.071 238.196 402.789 241.982 393.636L264.498 339.241C273.409 339.47 282.708 340.111 291.657 340.538C298.768 340.877 307.089 341.137 314.095 341.893C318.972 337.494 325.733 330.313 330.559 325.487L364.132 292.005C364.195 281.191 362.632 268.285 362.427 257.326C362.353 253.375 361.494 246.335 362.133 242.78C364.966 239.653 434.345 211.944 444.234 207.971C446.668 209.061 474.635 240.892 477.918 244.659L548.852 244.706C552.434 239.794 559.868 232.061 564.076 227.409C569.67 221.231 576.173 213.487 582.089 207.847ZM522.941 676.658C625.583 671.371 704.513 583.905 699.254 481.275C693.998 378.646 606.545 299.698 503.904 304.922C401.215 310.149 322.215 397.638 327.474 500.311C332.732 602.988 420.256 681.949 522.941 676.658Z"/>
</g>
<path class="logo-shape" d="M183.376 17.6901C185.948 17.2991 186.78 18.5746 187.941 20.7148C191.706 27.6565 195.225 34.9792 198.722 42.0509L237.097 52.3704C245.073 47.2097 252.073 42.2114 260.441 37.2346C262.768 38.7944 265.497 40.8948 267.676 42.6644C278.194 51.2075 290.069 59.0729 300.268 67.9136C298.036 76.2276 294.58 86.0758 291.757 94.2858C296.737 104.11 305.771 118.392 311.467 128.52C318.552 130.002 332.571 132.605 338.78 134.656C339.931 140.439 340.752 148.131 341.543 154.091C342.934 164.128 344.217 174.18 345.395 184.245C338.511 188.22 328.034 193.12 320.657 196.967C320.027 198.801 319.643 200.719 319.133 202.589C316.169 213.457 313.558 224.424 310.232 235.191C314.849 242.862 320.544 250.366 325.285 258.494C323.794 261.164 314.529 273.191 312.006 276.292C307.144 282.267 299.676 293.187 294.699 298.42C286.338 296.002 276.799 292.604 268.467 289.847C258.92 294.924 243.32 303.973 234.188 309.727C232.89 315.073 230.089 332.382 228.101 336.327C226.013 337.81 186.79 342.466 181.014 343.279C180.23 343.448 179.673 343.388 178.867 343.385C177.143 342.407 167.196 321.679 165.689 318.696C153.348 314.949 139.977 312.175 127.695 308.342C120.462 313.202 111.43 319.07 104.074 323.538C100.426 321.255 92.1494 314.586 88.4237 311.699C80.6123 305.645 71.6092 299.128 64.1473 292.783C66.4658 285.634 70.07 273.046 72.8033 266.583L52.8424 232.044C45.2175 230.878 33.6411 228.039 25.7985 226.343C25.1009 222.835 24.6855 219.268 24.2368 215.722C22.5811 202.638 20.697 189.574 19.1523 176.476C24.7574 173.056 37.2209 167.292 43.6512 163.999C45.1784 159.759 46.5893 153.824 47.795 149.303L54.0692 125.612C49.5214 117.914 43.8616 109.925 39.0643 102.129C48.1974 89.4593 59.8648 74.3751 69.6441 62.2768C78.4081 65.0703 87.5845 68.32 96.3486 70.874C107.498 64.1803 118.755 57.6686 130.116 51.3414C132.129 45.3743 134.195 28.6981 136.541 24.4855C140.045 22.6424 176.906 18.5043 183.376 17.6901ZM193.032 283.998C250.266 278.044 291.834 226.823 285.875 169.597C279.915 112.37 228.685 70.8107 171.452 76.7742C114.225 82.7369 72.667 133.954 78.6261 191.174C84.5847 248.394 135.805 289.952 193.032 283.998Z"/>
<defs>
<filter id="filter0_d_1_3" x="226.208" y="207.847" width="574.256" height="573.963" filterUnits="userSpaceOnUse" color-interpolation-filters="sRGB">
<feFlood flood-opacity="0" result="BackgroundImageFix"/>
<feColorMatrix in="SourceAlpha" type="matrix" values="0 0 0 0 0 0 0 0 0 0 0 0 0 0 0 0 0 0 127 0" result="hardAlpha"/>
<feOffset dy="4"/>
<feGaussianBlur stdDeviation="2"/>
<feComposite in2="hardAlpha" operator="out"/>
<feColorMatrix type="matrix" values="0 0 0 0 0 0 0 0 0 0 0 0 0 0 0 0 0 0 0.25 0"/>
<feBlend mode="normal" in2="BackgroundImageFix" result="effect1_dropShadow_1_3"/>
<feBlend mode="normal" in="SourceGraphic" in2="effect1_dropShadow_1_3" result="shape"/>
</filter>
</defs>
</svg>
